<?xml version="1.0" standalone="no"?>
<!DOCTYPE svg PUBLIC "-//W3C//DTD SVG 1.1//EN" "http://www.w3.org/Graphics/SVG/1.1/DTD/svg11.dtd" >
<svg xmlns="http://www.w3.org/2000/svg" xmlns:xlink="http://www.w3.org/1999/xlink" version="1.1">
<metadata></metadata>
<defs>
<font id="square721_ex_btroman" horiz-adv-x="1944" >
<font-face units-per-em="2048" ascent="1638" descent="-410" />
<missing-glyph horiz-adv-x="973" />
<glyph horiz-adv-x="0" />
<glyph unicode="&#xd;" horiz-adv-x="973" />
<glyph unicode=" "  horiz-adv-x="973" />
<glyph unicode="&#x09;" horiz-adv-x="973" />
<glyph unicode="&#xa0;" horiz-adv-x="973" />
<glyph unicode="!" horiz-adv-x="973" d="M371 0v270h231v-270h-231zM406 436v1053h161v-1053h-161z" />
<glyph unicode="&#x22;" horiz-adv-x="590" d="M94 881v553h117v-553h-117zM377 881v553h119v-553h-119z" />
<glyph unicode="#" horiz-adv-x="1575" d="M104 467l43 123h320l96 272h-342l43 123h344l168 471h146l-166 -471h260l168 471h143l-164 -471h307l-43 -123h-311l-94 -272h330l-43 -123h-332l-166 -469h-145l168 469h-265l-168 -469h-143l166 469h-320zM614 590h263l96 272h-264z" />
<glyph unicode="$" d="M127 1075q0 229 138 319.5t509 90.5h113v141h143v-141h84q281 0 394 -21t175 -71q53 -43 78 -112t25 -169q0 -7 -1 -23t-1 -24h-178v25q0 147 -74.5 197t-380.5 50h-121v-495h242q197 0 276 -12.5t131 -43.5q78 -45 111 -124t33 -228q0 -241 -135 -335.5t-484 -94.5h-174 v-172h-143v172h-195q-301 0 -431 89t-130 292q0 22 3 81q1 18 1 28l178 -1q-1 -19 -1.5 -37t-0.5 -44q0 -140 91 -194t350 -54h135v520h-215q-305 0 -425 87.5t-120 303.5zM301 1087q0 -139 76.5 -192t302.5 -53h45h162v495h-68q-338 0 -428 -50.5t-90 -199.5zM1030 164h119 q311 0 411.5 58.5t100.5 219.5q0 138 -64.5 190t-259.5 52h-20h-287v-520z" />
<glyph unicode="%" horiz-adv-x="2525" d="M129 895v252q0 214 68.5 287t277.5 73h250q209 0 278.5 -73t69.5 -275v-260q0 -202 -69 -275t-279 -73h-248q-207 0 -277.5 72t-70.5 272zM276 936q0 -154 38 -200t141 -46h297q103 0 140.5 44.5t37.5 201.5v194q0 160 -36 203t-142 43h-297q-105 0 -142 -44t-37 -202 v-194zM934 -18l516 1525h135l-514 -1525h-137zM1452 324v254q0 214 68.5 287t277.5 73h250q207 0 276.5 -73.5t69.5 -276.5v-258q0 -204 -69 -277t-277 -73h-250q-206 0 -276 71.5t-70 272.5zM1599 367q0 -158 37.5 -203t139.5 -45h299q103 0 140.5 44.5t37.5 203.5v192 q0 160 -36 203t-142 43h-299q-104 0 -140.5 -43.5t-36.5 -202.5v-192z" />
<glyph unicode="&#x26;" horiz-adv-x="2189" d="M141 494q0 192 88 292.5t258 100.5h11q-91 60 -126.5 122.5t-35.5 161.5q0 189 100.5 262.5t390.5 73.5h572q182 0 274 -97t92 -290q0 -28 -0.5 -42t-1.5 -25h-194q1 13 1.5 27t0.5 40q0 134 -53 178.5t-234 44.5h-516q-137 0 -191.5 -38.5t-54.5 -133.5 q0 -61 20.5 -96.5t104.5 -81.5l1088 -592v340h180v-204q0 -116 -3.5 -158t-10.5 -68l297 -157l-62 -154l-297 156q-50 -96 -171.5 -135t-401.5 -39h-471q-225 0 -333 23.5t-177 80.5q-72 60 -108 161.5t-36 246.5zM334 489q0 -110 13.5 -164t45.5 -89q42 -45 111 -63.5 t215 -18.5h629q167 0 232.5 18.5t92.5 65.5l-1041 557q-156 -2 -227 -74t-71 -232z" />
<glyph unicode="'" horiz-adv-x="305" d="M94 881v553h117v-553h-117z" />
<glyph unicode="(" horiz-adv-x="743" d="M152 383v717q0 214 101 308.5t333 94.5h84v-162h-76q-167 0 -214.5 -48.5t-47.5 -219.5v-663q0 -172 47.5 -220.5t214.5 -48.5h76v-159h-84q-235 0 -334.5 92t-99.5 309z" />
<glyph unicode=")" horiz-adv-x="743" d="M74 -18v159h76q166 0 214 48.5t48 220.5v663q0 171 -48 219.5t-214 48.5h-76v162h84q231 0 332.5 -94.5t101.5 -308.5v-717q0 -217 -99.5 -309t-334.5 -92h-84z" />
<glyph unicode="*" horiz-adv-x="1346" d="M221 1020v133h320v-133h-320zM391 729l158 275l115 -68l-158 -272zM391 1444l115 65l158 -274l-115 -66zM684 936l115 68l157 -275l-114 -65zM684 1235l158 274l114 -65l-159 -275zM807 1020v133h319v-133h-319z" />
<glyph unicode="+" horiz-adv-x="1706" d="M254 553v117h541v551h118v-551h539v-117h-539v-553h-118v553h-541z" />
<glyph unicode="," horiz-adv-x="973" d="M354 -104h41q31 0 44.5 15.5t13.5 51.5v37h-82v270h231v-307q0 -96 -44.5 -144t-133.5 -48h-70v125z" />
<glyph unicode="-" horiz-adv-x="901" d="M166 461v149h569v-149h-569z" />
<glyph unicode="." horiz-adv-x="973" d="M371 0v270h231v-270h-231z" />
<glyph unicode="/" horiz-adv-x="743" d="M-154 -190l848 1697h148l-848 -1697h-148z" />
<glyph unicode="0" d="M127 524v406q0 185 32 294.5t103 172.5q65 57 167.5 80.5t318.5 23.5h448q217 0 319.5 -24t165.5 -80q70 -62 103 -171.5t33 -277.5v-413q0 -171 -33 -279t-103 -170q-64 -57 -168 -80.5t-333 -23.5h-430q-215 0 -317.5 23.5t-168.5 80.5q-72 62 -104.5 165t-32.5 273z M307 541q0 -135 12 -193t39 -98q40 -58 111.5 -83.5t198.5 -25.5h606q128 0 199 25.5t110 83.5q28 41 39.5 98.5t11.5 192.5v28v342q0 158 -11.5 217.5t-39.5 102.5q-38 58 -110 84t-199 26h-606q-126 0 -197.5 -25.5t-112.5 -84.5q-27 -41 -39 -99t-12 -192v-29v-370z" />
<glyph unicode="1" d="M414 977l616 512h211v-1489h-174v1298l-551 -440z" />
<glyph unicode="2" d="M162 0v301q0 208 112.5 301.5t403.5 114.5l647 45q159 11 220 67t61 193q0 119 -14 172t-48 80q-55 45 -158 65.5t-290 20.5h-299q-264 0 -355.5 -67.5t-91.5 -250.5v-96h-178v178q0 209 126 296t439 87h443q367 0 492.5 -100.5t125.5 -380.5q0 -224 -104 -320.5 t-373 -115.5l-635 -47q-165 -13 -219.5 -34t-83.5 -65q-18 -28 -26.5 -79t-8.5 -129q0 -11 1 -34.5t1 -35.5h1465v-166h-1653z" />
<glyph unicode="3" d="M133 381q0 26 4 86v6h189v-39q0 -79 11 -130t34 -79q35 -40 95 -56.5t206 -16.5h45h563q146 0 201 10.5t86 36.5q30 26 42.5 74t12.5 167q0 139 -48.5 188.5t-182.5 49.5h-611v166h502q201 0 259 45.5t58 200.5q0 103 -18.5 146.5t-67.5 68.5q-29 14 -128.5 25t-225.5 11 h-493q-191 0 -260.5 -54.5t-69.5 -201.5q0 -6 1 -22t1 -25h-184v103q0 196 121 276t442 80h497q340 0 457 -79.5t117 -297.5q0 -205 -55.5 -274t-204.5 -72v-12h12q143 0 205.5 -75t62.5 -249q0 -158 -16.5 -229.5t-56.5 -114.5q-53 -57 -168 -84.5t-297 -27.5h-615 q-286 0 -404 90.5t-118 308.5z" />
<glyph unicode="4" d="M104 309v228l1221 952h244v-1018h248v-162h-248v-309h-166v309h-1299zM287 471h1116v875z" />
<glyph unicode="5" d="M154 383v80h182v-37q0 -158 72 -217t278 -59h580q204 0 275 65.5t71 263.5q0 159 -17.5 214t-60.5 91q-45 37 -118 52.5t-240 15.5h-441q-188 0 -270.5 -33t-95.5 -110h-172v780h1501v-166h-1329v-479q42 90 119 130t210 40h549q308 0 425.5 -90t117.5 -328v-209 q0 -230 -120.5 -317.5t-475.5 -87.5h-643q-101 0 -182 31t-136 89q-43 47 -61 103t-18 178z" />
<glyph unicode="6" d="M174 526v574q0 209 131.5 308t411.5 99h405q218 0 321 -12t163 -41q82 -38 126 -106t44 -156v-125h-180q0 9 0.5 20t0.5 31q0 132 -78.5 178.5t-342.5 46.5h-453q-202 0 -278 -61t-76 -233v-342q35 104 110.5 145t253.5 41h592q265 0 368 -91.5t103 -336.5 q0 -184 -32 -263.5t-113 -133.5q-66 -45 -177 -65.5t-278 -20.5h-391q-220 0 -324 23t-178 77q-71 53 -100 136t-29 308zM373 408q0 -109 26.5 -155t96.5 -69q37 -11 133.5 -19.5t212.5 -8.5h327q161 0 246 13t123 42q38 31 54 86.5t16 181.5q0 110 -26.5 155.5t-96.5 67.5 q-37 12 -134 20.5t-212 8.5h-328q-161 0 -246 -13t-123 -42q-38 -31 -53.5 -87t-15.5 -181z" />
<glyph unicode="7" d="M147 1323v166h1674v-232l-1086 -1257h-252l1155 1323h-1491z" />
<glyph unicode="8" d="M147 403q0 199 63 279.5t224 97.5q-140 8 -203 85t-63 241q0 220 103 310.5t354 90.5h694q250 0 353.5 -90.5t103.5 -310.5q0 -164 -63.5 -241t-202.5 -85q161 -17 223.5 -97.5t62.5 -279.5q0 -239 -103.5 -330t-387.5 -91h-666q-284 0 -388 91t-104 330zM334 424 q0 -171 72 -225t303 -54h526q231 0 303 54t72 225q0 160 -67 215t-277 55h-588q-211 0 -277.5 -55t-66.5 -215zM348 1077q0 -125 66 -176t229 -51h655q164 0 230.5 51.5t66.5 175.5q0 156 -64.5 211t-254.5 55h-610q-190 0 -254 -54.5t-64 -211.5z" />
<glyph unicode="9" d="M160 1024q0 184 32 263.5t113 133.5q66 44 176.5 65t278.5 21h391q220 0 324 -23t178 -77q71 -53 100 -136t29 -308v-574q0 -210 -131.5 -308.5t-411.5 -98.5h-405q-218 0 -321 12t-163 41q-82 38 -126 106t-44 156v125h180q-1 -10 -1.5 -20.5t-0.5 -30.5q0 -132 79 -179 t343 -47h453q202 0 278 61.5t76 233.5v340q-35 -103 -109.5 -143.5t-254.5 -40.5h-590q-266 0 -369.5 92t-103.5 336zM348 1010q0 -110 26.5 -155.5t96.5 -68.5q37 -11 134 -19.5t212 -8.5h328q161 0 246 13t122 42q39 30 54.5 86.5t15.5 181.5q0 109 -26.5 155t-96.5 69 q-37 11 -133.5 19.5t-212.5 8.5h-328q-161 0 -246 -13t-122 -42q-38 -31 -54 -86.5t-16 -181.5z" />
<glyph unicode=":" horiz-adv-x="973" d="M371 0v270h231v-270h-231zM371 782v271h231v-271h-231z" />
<glyph unicode=";" horiz-adv-x="973" d="M354 -104h41q31 0 44.5 15.5t13.5 51.5v37h-82v270h231v-307q0 -96 -44.5 -144t-133.5 -48h-70v125zM371 782v271h231v-271h-231z" />
<glyph unicode="&#x3c;" horiz-adv-x="1706" d="M264 559v103l1178 483v-127l-1000 -408l1000 -405v-129z" />
<glyph unicode="=" horiz-adv-x="1706" d="M254 360v117h1198v-117h-1198zM254 743v117h1198v-117h-1198z" />
<glyph unicode="&#x3e;" horiz-adv-x="1706" d="M264 76v129l1000 405l-1000 408v127l1178 -483v-103z" />
<glyph unicode="?" horiz-adv-x="1595" d="M106 1016v203q0 138 106.5 213t303.5 75h463q290 0 401 -92.5t111 -333.5q0 -195 -76 -289t-254 -122l-203 -31q-100 -15 -133.5 -47t-33.5 -103v-20h-164v88q0 106 68 162.5t227 81.5l227 37q96 15 134 72.5t38 191.5q0 150 -69 200t-359 50h-295q-186 0 -254 -51 t-68 -193v-92h-170zM588 0v270h231v-270h-231z" />
<glyph unicode="@" horiz-adv-x="2048" d="M113 522q0 163 50.5 309t149.5 269q146 176 349.5 267t453.5 91q165 0 311 -43.5t248 -124.5q129 -99 195.5 -230t66.5 -282q0 -169 -62.5 -308.5t-182.5 -236.5q-69 -55 -148.5 -83.5t-163.5 -28.5q-99 0 -148.5 39t-49.5 116q0 3 1 11t1 12q-51 -87 -127 -132.5 t-170 -45.5q-153 0 -233.5 85t-80.5 247q0 230 137 389t332 159q91 0 153.5 -39.5t96.5 -117.5l58 121h110l-141 -568q-6 -24 -9 -44t-3 -36q0 -44 27.5 -67t82.5 -23q45 0 100 24t103 64q89 76 139.5 196.5t50.5 254.5q0 266 -195.5 428t-518.5 162q-168 0 -312.5 -52 t-259.5 -153q-140 -122 -211 -282.5t-71 -354.5q0 -173 60.5 -304t186.5 -230q101 -81 240 -124.5t295 -43.5q172 0 334.5 48.5t296.5 139.5l45 -66q-147 -109 -313 -165t-347 -56q-191 0 -348 46.5t-276 138.5q-153 117 -228 272t-75 352zM713 446q0 -110 51 -169.5 t145 -59.5q102 0 183.5 70.5t109.5 185.5l60 242q-17 90 -72 140t-135 50q-146 0 -244 -131.5t-98 -327.5z" />
<glyph unicode="A" horiz-adv-x="1972" d="M-2 0l864 1489h246l866 -1489h-196l-195 328h-1184l-190 -328h-211zM489 485h1004l-506 856z" />
<glyph unicode="B" horiz-adv-x="1976" d="M182 0v1489h1063q199 0 295.5 -15t153.5 -51q69 -43 98 -111t29 -200q0 -155 -53.5 -221.5t-192.5 -95.5q158 -11 226.5 -78.5t68.5 -212.5v-158q0 -198 -128 -272t-532 -74h-1028zM367 170h974q217 0 284 47.5t67 196.5q0 174 -65 225t-286 51h-974v-520zM367 864h847 q299 0 362.5 45t63.5 183q0 84 -14.5 128.5t-48.5 65.5q-37 23 -102.5 32t-231.5 9h-47h-829v-463z" />
<glyph unicode="C" horiz-adv-x="2034" d="M152 528v406q0 186 33.5 296t107.5 173q67 57 175 80.5t329 23.5h469q364 0 492 -90.5t128 -329.5q0 -31 -0.5 -48t-1.5 -31h-170v22q0 174 -76.5 243.5t-269.5 69.5h-645q-132 0 -205.5 -25t-114.5 -83q-29 -41 -41 -98t-12 -191v-28v-367q0 -134 12 -191t41 -98 q41 -58 114.5 -83t205.5 -25h643q211 0 288 68t77 247v41h170q0 -14 1 -38.5t1 -35.5q0 -140 -28 -223.5t-91 -136.5q-60 -52 -168 -73t-350 -21h-467q-229 0 -334 23.5t-172 80.5q-74 63 -107.5 167t-33.5 275z" />
<glyph unicode="D" horiz-adv-x="2126" d="M182 0v1489h1121q219 0 330.5 -22.5t183.5 -73.5q91 -66 132.5 -171t41.5 -276v-403q0 -171 -41.5 -276t-132.5 -171q-72 -52 -183.5 -74t-330.5 -22h-1121zM367 166h1054q209 0 293 80.5t84 279.5v435q0 210 -79 286t-298 76h-1054v-1157z" />
<glyph unicode="E" horiz-adv-x="1741" d="M184 0v1489h1467v-166h-1286v-467h1232v-166h-1232v-524h1286v-166h-1467z" />
<glyph unicode="F" horiz-adv-x="1675" d="M182 0v1489h1407v-166h-1220v-475h1173v-162h-1173v-686h-187z" />
<glyph unicode="G" horiz-adv-x="2114" d="M152 528v406q0 186 33.5 296t107.5 173q67 57 175 80.5t329 23.5h534q365 0 494 -90.5t129 -329.5q0 -31 -0.5 -47.5t-1.5 -31.5h-170v22q0 174 -76.5 243.5t-271.5 69.5h-711q-134 0 -206 -25t-114 -83q-29 -41 -41 -98t-12 -191v-28v-367q0 -134 12 -191t41 -98 q41 -58 114.5 -83t205.5 -25h704q215 0 285 67t70 289v76h-764v166h950v-242q0 -217 -27 -298.5t-92 -135.5q-60 -52 -168 -73t-350 -21h-532q-224 0 -331 24t-175 82q-74 63 -107.5 166t-33.5 274z" />
<glyph unicode="H" horiz-adv-x="2083" d="M182 0v1489h185v-641h1349v641h185v-1489h-185v686h-1349v-686h-185z" />
<glyph unicode="I" horiz-adv-x="567" d="M186 0v1489h185v-1489h-185z" />
<glyph unicode="J" horiz-adv-x="1583" d="M53 412v16v115h185v-131q0 -158 56.5 -210t215.5 -52h319q142 0 223 14.5t115 46.5q32 30 45 85.5t13 190.5v56v946h184v-1108q0 -220 -99.5 -309.5t-348.5 -89.5h-433q-175 0 -251 22.5t-130 77.5q-50 51 -72 116.5t-22 213.5z" />
<glyph unicode="K" horiz-adv-x="1882" d="M182 0v1489h189v-633h258l927 633h320l-1055 -715l1127 -774h-328l-991 694h-258v-694h-189z" />
<glyph unicode="L" horiz-adv-x="1571" d="M182 0v1489h185v-1325h1157v-164h-1342z" />
<glyph unicode="M" horiz-adv-x="2695" d="M182 0v1489h267l894 -1294l895 1294h275v-1489h-180v1311l-916 -1311h-139l-916 1311v-1311h-180z" />
<glyph unicode="N" horiz-adv-x="2185" d="M182 0v1489h291l1346 -1319v1319h184v-1489h-270l-1366 1339v-1339h-185z" />
<glyph unicode="O" horiz-adv-x="2175" d="M152 528v406q0 186 35 296t114 173q71 56 187.5 80t351.5 24h497q235 0 351.5 -24t187.5 -80q77 -61 113 -169.5t36 -281.5v-415q0 -174 -36 -282t-113 -169q-71 -57 -184.5 -80.5t-354.5 -23.5h-495q-239 0 -353 23.5t-186 80.5q-80 64 -115.5 168t-35.5 274zM350 553 q0 -134 13 -191.5t45 -99.5q44 -58 122 -83t222 -25h673q144 0 222 25t122 83q30 40 43 95.5t13 172.5v50v387q0 118 -13 173t-43 95q-44 58 -122 83t-222 25h-673q-144 0 -222 -25t-122 -83q-32 -42 -45 -99.5t-13 -191.5v-26v-365z" />
<glyph unicode="P" horiz-adv-x="1896" d="M182 0v1489h1035q355 0 469 -76t114 -278v-195q0 -202 -113.5 -277t-469.5 -75h-850v-588h-185zM367 756h903q201 0 266.5 48t65.5 202v71q0 154 -65.5 202t-266.5 48h-903v-571z" />
<glyph unicode="Q" horiz-adv-x="2175" d="M152 524v406q0 185 35 294.5t114 172.5q71 56 186.5 80t350.5 24h499q235 0 350.5 -24t186.5 -80q77 -61 113 -169.5t36 -279.5v-403q0 -65 -6.5 -124t-19.5 -118l164 -102l-82 -142l-144 97q-65 -96 -188.5 -135t-409.5 -39h-497q-237 0 -350.5 23.5t-186.5 80.5 q-80 62 -115.5 165.5t-35.5 272.5zM350 526q0 -116 13 -171t43 -95q44 -60 122.5 -84t255.5 -24h641q148 0 227.5 25t121.5 83l-584 379l86 141l545 -366v23q4 98 4 138v365q0 133 -13 190t-45 99q-43 58 -119 83t-223 25h-675q-147 0 -224 -25t-120 -83q-30 -40 -43 -95 t-13 -171v-50v-387z" />
<glyph unicode="R" horiz-adv-x="1974" d="M182 0v1489h1063q355 0 470.5 -75.5t115.5 -278.5v-179q0 -138 -57.5 -202t-204.5 -95q122 -13 184 -86.5t62 -203.5v-369h-185v332q0 146 -63.5 199t-296.5 53h-903v-584h-185zM367 756h938q200 0 265.5 49.5t65.5 200.5v71q0 150 -65.5 200t-265.5 50h-938v-571z" />
<glyph unicode="S" horiz-adv-x="1954" d="M145 1092q0 230 137.5 322.5t503.5 92.5h338q277 0 388 -21t174 -73q51 -44 75.5 -115.5t24.5 -179.5v-43h-178v23q0 147 -70.5 198.5t-298.5 51.5h-508q-232 0 -312.5 -53t-80.5 -195q0 -144 78.5 -198t326.5 -54h535q175 0 263.5 -14t141.5 -46q77 -45 109.5 -126 t32.5 -236q0 -248 -133.5 -346t-481.5 -98h-505q-300 0 -427.5 90.5t-127.5 300.5q0 28 3 95q0 11 1 17h178q-1 -11 -2 -29q-2 -43 -2 -59q0 -140 92 -195t344 -55h389q303 0 395 60t92 229q0 141 -64 193.5t-263 52.5h-629q-298 0 -418.5 92.5t-120.5 317.5z" />
<glyph unicode="T" horiz-adv-x="1759" d="M49 1323v166h1659v-166h-737v-1323h-185v1323h-737z" />
<glyph unicode="U" horiz-adv-x="2066" d="M172 524v965h190v-965q0 -119 12 -172t40 -92q39 -57 111.5 -82.5t201.5 -25.5h612q130 0 202 25.5t112 82.5q28 39 39.5 92t11.5 172v51v914h190v-954q0 -171 -33 -279t-104 -170q-64 -57 -169 -80.5t-326 -23.5h-455q-219 0 -324 23.5t-172 80.5q-73 62 -106 165 t-33 273z" />
<glyph unicode="V" horiz-adv-x="1886" d="M-2 1489h209l733 -1331l737 1331h211l-827 -1489h-236z" />
<glyph unicode="W" horiz-adv-x="2654" d="M2 1489h191l516 -1333l495 1333h246l492 -1333l520 1333h194l-579 -1489h-265l-485 1298l-485 -1298h-264z" />
<glyph unicode="X" horiz-adv-x="1931" d="M-10 0l805 795l-713 694h260l619 -608l632 608h252l-710 -694l807 -795h-263l-712 711l-711 -711h-266z" />
<glyph unicode="Y" horiz-adv-x="1886" d="M2 1489h262l680 -698l680 698h264l-846 -866v-623h-196v623z" />
<glyph unicode="Z" horiz-adv-x="1872" d="M90 0v166l1376 1161h-1325v162h1596v-162l-1377 -1161h1397v-166h-1667z" />
<glyph unicode="[" horiz-adv-x="743" d="M158 0v1485h512v-162h-336v-1161h336v-162h-512z" />
<glyph unicode="\" horiz-adv-x="743" d="M-96 1507h147l846 -1697h-147z" />
<glyph unicode="]" horiz-adv-x="743" d="M76 0v162h336v1161h-336v162h512v-1485h-512z" />
<glyph unicode="^" horiz-adv-x="2048" d="M422 901l520 557h162l520 -557h-158l-442 438l-442 -438h-160z" />
<glyph unicode="_" horiz-adv-x="1024" d="M0 -365h1024v-118h-1024v118z" />
<glyph unicode="`" horiz-adv-x="1024" d="M197 1448h247l234 -272h-137z" />
<glyph unicode="a" horiz-adv-x="1550" d="M102 328q0 179 108.5 252t375.5 73h295q132 0 219 -30t141 -95v144q0 134 -71.5 185.5t-268.5 51.5h-250q-193 0 -247 -29t-54 -114v-31h-176v29q0 160 106 231.5t345 71.5h303q244 0 358.5 -93.5t114.5 -293.5v-680h-160v139q-41 -83 -123 -118t-248 -35h-280 q-270 0 -379 76t-109 266zM285 336q0 -120 60 -157.5t288 -37.5h252q205 0 275.5 30.5t70.5 107.5v92q0 77 -72 108t-274 31h-252q-220 0 -284 -35.5t-64 -138.5z" />
<glyph unicode="b" horiz-adv-x="1602" d="M164 0v1489h162v-569q54 76 133 111.5t196 35.5h324q269 0 386.5 -104.5t117.5 -346.5v-165q0 -252 -116 -358.5t-388 -106.5h-283q-174 0 -259.5 42.5t-129.5 143.5v-172h-143zM324 469q0 -194 74.5 -261t303.5 -67h234q229 0 304 67t75 261v125q0 188 -75.5 253.5 t-303.5 65.5h-234q-227 0 -302.5 -65.5t-75.5 -253.5v-125z" />
<glyph unicode="c" horiz-adv-x="1505" d="M133 393v266q0 208 123 308t379 100h250q269 0 384 -82t115 -270v-27h-155q-2 132 -64 178.5t-276 46.5h-246q-185 0 -263.5 -55.5t-78.5 -181.5v-244q0 -166 72 -228.5t274 -62.5h250q198 0 271 53.5t73 190.5v12h158v-28q0 -201 -110.5 -292t-352.5 -91h-301 q-255 0 -378.5 100t-123.5 307z" />
<glyph unicode="d" horiz-adv-x="1602" d="M123 451v165q0 242 117.5 346.5t386.5 104.5h323q118 0 197 -35.5t133 -111.5v569h162v-1489h-146v172q-43 -101 -128.5 -143.5t-260.5 -42.5h-280q-272 0 -388 106.5t-116 358.5zM289 469q0 -194 75 -261t304 -67h235q229 0 304 67t75 261v125q0 188 -75.5 253.5 t-303.5 65.5h-235q-228 0 -303.5 -65.5t-75.5 -253.5v-125z" />
<glyph unicode="e" horiz-adv-x="1569" d="M133 440v168q0 248 121.5 353.5t407.5 105.5h262q297 0 413.5 -110t116.5 -386q0 -33 -0.5 -50t-1.5 -31l-1151 -1v-57q0 -167 81 -233t282 -66h274q175 0 258.5 43.5t83.5 134.5v11h174v-27q0 -152 -121.5 -230.5t-355.5 -78.5h-315q-284 0 -406.5 105t-122.5 349z M301 641h977v25q0 141 -72 194t-286 53h-261q-199 0 -278.5 -61.5t-79.5 -210.5z" />
<glyph unicode="f" horiz-adv-x="879" d="M31 903v150h221v75q0 188 92 274.5t293 86.5h268v-152h-262q-123 0 -174 -41t-51 -137v-106h487v-150h-487v-903h-166v903h-221z" />
<glyph unicode="g" horiz-adv-x="1587" d="M133 496v127q0 235 118.5 339.5t385.5 104.5h231q207 0 290 -36.5t128 -127.5v150h154v-1035q0 -195 -125.5 -293t-374.5 -98h-309q-244 0 -363 86t-125 267l166 -1q2 -104 78.5 -147t271.5 -43h263q208 0 282 52.5t74 191.5v166q-57 -82 -125.5 -115t-194.5 -33h-327 q-264 0 -381 104t-117 341zM299 471q0 -150 75.5 -208t284.5 -58h263q209 0 284.5 58t75.5 208v176q0 149 -75.5 207.5t-284.5 58.5h-263q-209 0 -284.5 -58t-75.5 -208v-176z" />
<glyph unicode="h" horiz-adv-x="1602" d="M164 0v1489h166v-631q59 111 182.5 160t351.5 49q326 0 454 -85t128 -296v-686h-166v641q0 90 -15.5 133.5t-54.5 71.5q-43 32 -143.5 48.5t-249.5 16.5q-265 0 -376 -65t-111 -217v-629h-166z" />
<glyph unicode="i" horiz-adv-x="512" d="M172 0v1053h168v-1053h-168zM172 1290v199h168v-199h-168z" />
<glyph unicode="j" horiz-adv-x="530" d="M14 -203h19q100 0 131 25.5t31 105.5v1125h165v-1141q0 -162 -57.5 -216t-224.5 -54q-10 0 -31 1t-33 1v153zM195 1290v199h165v-199h-165z" />
<glyph unicode="k" horiz-adv-x="1403" d="M193 0v1489h165v-821h109l584 385h260l-703 -461l832 -592h-256l-721 508h-105v-508h-165z" />
<glyph unicode="l" horiz-adv-x="551" d="M193 0v1489h165v-1489h-165z" />
<glyph unicode="m" horiz-adv-x="2484" d="M164 0v1053h162v-133q44 80 148 113.5t325 33.5q235 0 338.5 -44t136.5 -149q65 100 180.5 146.5t298.5 46.5q316 0 445 -86.5t129 -294.5v-686h-152v641q0 96 -15.5 138.5t-52.5 68.5q-44 31 -134.5 48t-211.5 17q-219 0 -320.5 -60.5t-115.5 -199.5v-653h-160v655 q0 163 -75 210.5t-306 47.5q-245 0 -350.5 -63.5t-105.5 -210.5v-639h-164z" />
<glyph unicode="n" horiz-adv-x="1602" d="M164 0v1053h166v-195q59 111 182.5 160t351.5 49q326 0 454 -85t128 -296v-686h-166v641q0 94 -15.5 136t-54.5 69q-44 32 -144.5 48.5t-248.5 16.5q-265 0 -376 -65t-111 -217v-629h-166z" />
<glyph unicode="o" horiz-adv-x="1636" d="M133 451v165q0 242 117.5 346.5t386.5 104.5h362q269 0 386.5 -104.5t117.5 -346.5v-165q0 -252 -116 -358.5t-388 -106.5h-362q-272 0 -388 106.5t-116 358.5zM301 469q0 -194 75 -261t304 -67h274q230 0 305.5 67t75.5 261v125q0 188 -76 253.5t-305 65.5h-274 q-228 0 -303.5 -65.5t-75.5 -253.5v-125z" />
<glyph unicode="p" horiz-adv-x="1602" d="M164 -356v1407h143v-172q44 101 129.5 143.5t259.5 42.5h283q272 0 388 -106.5t116 -358.5v-166q0 -241 -117.5 -345.5t-386.5 -104.5h-324q-117 0 -196 35t-133 112v-487h-162zM324 457q0 -189 75.5 -254.5t302.5 -65.5h234q228 0 303.5 65.5t75.5 254.5v125 q0 194 -75 260.5t-304 66.5h-234q-229 0 -303.5 -66.5t-74.5 -260.5v-125z" />
<glyph unicode="q" horiz-adv-x="1602" d="M121 434v166q0 252 116 358.5t388 106.5h282q174 0 258.5 -42.5t128.5 -143.5v172h146v-1407h-162v487q-54 -77 -133 -112t-197 -35h-323q-269 0 -386.5 104.5t-117.5 345.5zM289 457q0 -189 75.5 -254.5t303.5 -65.5h233q228 0 303.5 65.5t75.5 254.5v125 q0 194 -75 260.5t-304 66.5h-233q-229 0 -304 -66.5t-75 -260.5v-125z" />
<glyph unicode="r" horiz-adv-x="1313" d="M164 0v1042h162v-155q51 99 145 139.5t293 40.5q267 0 375 -79.5t108 -270.5v-139h-155v98q0 141 -73.5 188t-295.5 47q-204 0 -296.5 -61t-92.5 -197v-653h-170z" />
<glyph unicode="s" horiz-adv-x="1602" d="M143 362h152v-18q0 -121 47 -162t221 -41h471q139 0 177 31.5t38 140.5q0 89 -45.5 121.5t-167.5 32.5h-432q-286 0 -371.5 59.5t-85.5 235.5q0 167 102.5 235t354.5 68h299q250 0 363.5 -61t113.5 -193v-70h-159v43q0 73 -73.5 100t-303.5 27h-164q-246 0 -306.5 -29 t-60.5 -120q0 -93 60.5 -123.5t306.5 -30.5l287 2q192 0 266 -18t117 -62q39 -39 55 -90t16 -180q0 -152 -102 -214t-369 -62h-424q-209 0 -294.5 85.5t-88.5 292.5z" />
<glyph unicode="t" horiz-adv-x="1196" d="M14 911v142h226v241h161v-241h693v-142h-695v-553q0 -129 56 -177t256 -48q162 0 217 40t55 173v135h145v-135q0 -200 -100.5 -280t-355.5 -80q-133 0 -217.5 25t-139.5 79q-41 40 -58 94.5t-17 184.5v542h-226z" />
<glyph unicode="u" horiz-adv-x="1602" d="M156 367v686h166v-635q0 -96 15.5 -139.5t53.5 -71.5q45 -33 145.5 -49.5t260.5 -16.5q246 0 358.5 61.5t112.5 194.5v656h170v-1053h-160v199q-63 -116 -176 -164.5t-334 -48.5q-335 0 -473.5 87t-138.5 294z" />
<glyph unicode="v" horiz-adv-x="1364" d="M0 1053h186l492 -895l496 895h188l-584 -1053h-207z" />
<glyph unicode="w" horiz-adv-x="2081" d="M0 1053h193l395 -906l321 906h254l320 -906l413 906h185l-496 -1053h-231l-320 909l-332 -909h-231z" />
<glyph unicode="x" horiz-adv-x="1380" d="M0 0l561 563l-491 490h227l383 -381l379 381h231l-489 -478l579 -575h-252l-448 467l-442 -467h-238z" />
<glyph unicode="y" horiz-adv-x="1337" d="M2 1053h184l502 -912l457 912h186l-520 -1053q-119 -238 -221 -305.5t-281 -67.5q-23 0 -61 1t-53 1v150q16 -1 31.5 -1.5t29.5 -0.5q166 0 242 48.5t123 174.5h-50z" />
<glyph unicode="z" horiz-adv-x="1337" d="M100 0v158l918 757h-881v138h1114v-148l-917 -758h923v-147h-1157z" />
<glyph unicode="{" horiz-adv-x="1024" d="M172 467v127q8 0 23 -1t22 -1q134 0 189 61.5t55 214.5v244q0 153 22.5 215.5t77.5 97.5q42 28 102 40t160 12h35v-127q-8 0 -23 1t-22 1q-121 0 -164 -47t-43 -197v-242q0 -166 -43.5 -235.5t-154.5 -100.5q111 -30 154.5 -99.5t43.5 -235.5v-242q0 -149 43.5 -195.5 t169.5 -46.5h39v-125h-35q-99 0 -159.5 12t-102.5 40q-55 36 -77.5 100t-22.5 213v244q0 152 -55 213t-189 61q-7 0 -22 -1t-23 -1z" />
<glyph unicode="|" horiz-adv-x="1024" d="M449 -483v2048h126v-2048h-126z" />
<glyph unicode="}" horiz-adv-x="1024" d="M166 -289q8 0 23 -1t22 -1q120 0 163.5 47.5t43.5 198.5v240q0 166 43.5 235.5t154.5 99.5q-111 31 -154.5 100.5t-43.5 235.5v242q0 149 -44 196.5t-169 47.5h-39v125h35q100 0 161 -12.5t103 -39.5q54 -35 76 -98t22 -215v-244q0 -152 55.5 -214t190.5 -62q7 0 22 1 t23 1v-127q-8 0 -23 1t-22 1q-135 0 -190.5 -62t-55.5 -214v-242q0 -153 -22 -216.5t-76 -99.5q-39 -26 -97.5 -37.5t-160.5 -11.5h-41v125z" />
<glyph unicode="~" horiz-adv-x="1706" d="M178 461v133q105 73 202 109t185 36q56 0 116.5 -12.5t174.5 -52.5q14 -5 44 -16q158 -58 245 -58q84 0 174.5 37t210.5 121v-131q-101 -72 -197.5 -108t-189.5 -36q-43 0 -90.5 9t-100.5 26q-30 10 -87 31q-202 72 -302 72q-83 0 -173.5 -37.5t-211.5 -122.5z" />
<glyph unicode="&#xa0;" />
<glyph unicode="&#xa1;" horiz-adv-x="973" d="M371 1219v270h231v-270h-231zM410 0v1053h157v-1053h-157z" />
<glyph unicode="&#xa2;" d="M352 391v268q0 208 122.5 307t379.5 99h236l61 213h145l-61 -213q179 -5 274 -94t95 -252v-31h-156q0 119 -55.5 171t-184.5 52h-16l-221 -770h145q198 0 271 53.5t73 190.5v12h160v-28q0 -199 -111.5 -291t-353.5 -92h-227l-76 -260h-145l73 260h-6q-197 0 -309.5 107.5 t-112.5 297.5zM520 430q0 -153 65 -221t212 -68h28l222 770h-185q-187 0 -264.5 -55t-77.5 -182v-244z" />
<glyph unicode="&#xa3;" d="M135 0l1 168q140 2 197.5 49.5t57.5 159.5v250h-256v141h256v420q0 166 101 242.5t321 76.5h401q311 0 438.5 -75.5t127.5 -251.5v-125h-174q1 12 1.5 25.5t0.5 39.5q0 134 -71 182t-288 48h-446q-125 0 -178.5 -56t-53.5 -192v-334h744v-141h-744v-166q0 -159 -25 -210 t-89 -83h1351v-168h-1673z" />
<glyph unicode="&#xa4;" horiz-adv-x="1241" d="M86 424l207 205q-44 58 -66 122t-22 134q0 69 22 133.5t66 122.5l-207 205l72 73l207 -207q60 46 122.5 68.5t133.5 22.5t135.5 -22.5t124.5 -68.5l204 207l72 -73l-205 -205q43 -57 64.5 -121t21.5 -135t-21.5 -135.5t-64.5 -120.5l205 -205l-72 -74l-204 207 q-57 -44 -121.5 -66t-138.5 -22t-136.5 21.5t-119.5 66.5l-207 -207zM309 887q0 -131 91.5 -223.5t222.5 -92.5q129 0 221 93t92 223q0 129 -91.5 221t-221.5 92t-222 -92t-92 -221z" />
<glyph unicode="&#xa5;" d="M43 1489h229l705 -733l709 733h215l-412 -424h369v-123h-490l-201 -205h691v-123h-803v-614h-166v614h-801v123h690l-200 205h-490v123h369z" />
<glyph unicode="&#xa6;" horiz-adv-x="1024" d="M449 -350v758h126v-758h-126zM449 674v758h126v-758h-126z" />
<glyph unicode="&#xa7;" horiz-adv-x="1554" d="M137 797q0 88 54 148.5t149 78.5q-65 34 -100 94t-35 137q0 118 74 185t204 67h506q216 0 286.5 -54.5t70.5 -199.5v-30h-144v16q0 78 -29.5 107.5t-111.5 29.5h-35h-522q-65 0 -100 -28.5t-35 -81.5q0 -52 33 -82.5t106 -44.5l690 -135q121 -25 181.5 -85.5t60.5 -156.5 q0 -102 -54.5 -165.5t-156.5 -80.5q67 -38 101 -100.5t34 -147.5q0 -62 -20 -116t-60 -97q-38 -40 -85.5 -56.5t-156.5 -16.5h-553q-160 0 -220 56.5t-60 205.5q0 7 -1 20.5t-1 20.5q0 9 0.5 13.5t1.5 8.5h149q0 -7 -1 -19.5t-1 -17.5q0 -85 32.5 -115t143.5 -30h498 q94 0 131 31t37 106q0 66 -35.5 100.5t-124.5 51.5l-663 127q-121 23 -179.5 86t-58.5 170zM293 825q0 -50 27.5 -80t85.5 -43l649 -133q15 -3 30.5 -4.5t28.5 -1.5q72 0 120 45.5t48 112.5q0 53 -32.5 82.5t-119.5 48.5l-602 131q-16 3 -31.5 4.5t-29.5 1.5q-70 0 -122 -49 t-52 -115z" />
<glyph unicode="&#xa8;" horiz-adv-x="1024" d="M201 1200v195h207v-195h-207zM616 1200v195h207v-195h-207z" />
<glyph unicode="&#xa9;" horiz-adv-x="1706" d="M119 725q0 145 56.5 279.5t162.5 242.5q102 104 234 158.5t280 54.5q151 0 285 -55t239 -160q102 -102 156.5 -236t54.5 -284q0 -151 -54 -283t-157 -233q-109 -106 -244.5 -162.5t-279.5 -56.5q-146 0 -278 55.5t-238 161.5q-106 105 -161.5 238.5t-55.5 279.5zM207 725 q0 -127 49 -244t141 -211q93 -92 209.5 -141t245.5 -49t248.5 50t214.5 142q91 90 138.5 205.5t47.5 247.5q0 130 -49 249t-139 210q-92 92 -210 140t-251 48q-132 0 -247.5 -47.5t-205.5 -138.5q-93 -95 -142.5 -214t-49.5 -247zM465 721q0 208 107.5 332.5t287.5 124.5 q137 0 230 -74.5t104 -192.5h-129q-15 77 -70.5 120.5t-138.5 43.5q-117 0 -182.5 -92.5t-65.5 -259.5q0 -160 66.5 -252t181.5 -92q87 0 145.5 48.5t73.5 133.5h129q-11 -127 -109 -207t-245 -80q-176 0 -280.5 121t-104.5 326z" />
<glyph unicode="&#xaa;" horiz-adv-x="1163" d="M78 981q0 126 80.5 176.5t281.5 50.5h222q98 0 163.5 -21t106.5 -65v101q0 93 -54 129.5t-202 36.5h-187q-145 0 -186 -20.5t-41 -80.5v-22h-131v20q0 113 79.5 163t258.5 50h227q183 0 269 -66t86 -206v-475h-119v98q-31 -59 -93 -84t-186 -25h-211q-202 0 -283 53.5 t-81 186.5zM213 987q0 -84 45.5 -110.5t216.5 -26.5h189q153 0 206.5 21.5t53.5 74.5v66q0 53 -53.5 74.5t-206.5 21.5h-189q-165 0 -213.5 -25t-48.5 -96z" />
<glyph unicode="&#xab;" horiz-adv-x="1028" d="M94 541l221 317h187l-219 -317l219 -324h-187zM524 541l221 317h189l-221 -317l221 -324h-189z" />
<glyph unicode="&#xac;" horiz-adv-x="1706" d="M254 741v117h1198v-502h-115v385h-1083z" />
<glyph unicode="&#xad;" horiz-adv-x="901" d="M166 461v149h569v-149h-569z" />
<glyph unicode="&#xae;" horiz-adv-x="1706" d="M119 725q0 147 57 282t164 242q101 103 232 157t280 54q150 0 284 -55.5t240 -161.5q102 -102 156.5 -235.5t54.5 -282.5q0 -151 -54.5 -283t-158.5 -233q-109 -106 -243.5 -162.5t-278.5 -56.5q-145 0 -278.5 56t-239.5 163q-105 104 -160 237t-55 279zM207 725 q0 -127 49 -244t141 -211q91 -92 208 -141t245 -49q131 0 249.5 48.5t213.5 141.5q91 90 139.5 206t48.5 245q0 133 -48 251.5t-138 209.5q-94 93 -211.5 141.5t-251.5 48.5q-132 0 -247 -47t-204 -137q-94 -95 -144 -214t-50 -249zM561 317v840h311q178 0 264.5 -57 t86.5 -174q0 -89 -53 -148.5t-144 -75.5l188 -385h-157l-176 365h-179v-365h-141zM702 774h148q123 0 175 33t52 108q0 79 -54.5 114.5t-176.5 35.5h-144v-291z" />
<glyph unicode="&#xaf;" horiz-adv-x="1024" d="M201 1231v133h622v-133h-622z" />
<glyph unicode="&#xb0;" horiz-adv-x="674" d="M55 1171q0 119 82.5 201t200.5 82q117 0 200 -83t83 -200q0 -116 -83.5 -199t-201.5 -83t-199.5 82t-81.5 200zM135 1171q0 -84 59.5 -143t143.5 -59t142.5 59t58.5 143t-58.5 142.5t-142.5 58.5t-143.5 -58.5t-59.5 -142.5z" />
<glyph unicode="&#xb1;" horiz-adv-x="1706" d="M254 41v117h1198v-117h-1198zM254 719v117h541v344h118v-344h539v-117h-539v-344h-118v344h-541z" />
<glyph unicode="&#xb2;" horiz-adv-x="1282" d="M106 592v180q0 125 74.5 181.5t265.5 68.5l428 27q105 6 145 39.5t40 115.5q0 75 -9 106t-30 46q-37 27 -104.5 39t-192.5 12h-197q-174 0 -234.5 -40.5t-60.5 -149.5v-58h-118v107q0 126 83.5 178.5t290.5 52.5h291q242 0 325 -60.5t83 -228.5q0 -135 -67.5 -192.5 t-246.5 -69.5l-419 -28l-7 -1q-160 -13 -194 -59q-11 -17 -17 -49t-6 -76q0 -7 1 -20.5t1 -20.5h967v-100h-1092z" />
<glyph unicode="&#xb3;" horiz-adv-x="1282" d="M88 821q0 8 1 26.5t1 29.5h125v-25q0 -45 7 -76.5t22 -48.5q24 -24 65.5 -34.5t132.5 -10.5h31h373q92 0 130 6.5t58 22.5t28.5 46.5t8.5 98.5q0 84 -32.5 113.5t-120.5 29.5h-404v99h332q132 0 170.5 27.5t38.5 119.5q0 65 -12 90t-43 39q-21 9 -87 16t-147 7h-326 q-126 0 -172.5 -33t-46.5 -121q0 -4 1 -13.5t1 -15.5h-121v62q0 118 80.5 166.5t290.5 48.5h328q224 0 301.5 -48t77.5 -179q0 -124 -36.5 -164.5t-135.5 -42.5v-8h8q95 0 136.5 -45.5t41.5 -149.5q0 -92 -11 -135.5t-38 -69.5q-34 -34 -109.5 -50.5t-197.5 -16.5h-406 q-189 0 -266.5 54t-77.5 185z" />
<glyph unicode="&#xb4;" horiz-adv-x="1024" d="M346 1176l234 272h247l-344 -272h-137z" />
<glyph unicode="&#xb5;" horiz-adv-x="1128" d="M-111 -426l316 1495h157l-126 -595q-8 -33 -11.5 -67t-3.5 -71q0 -109 57 -168t160 -59q125 0 208 101t128 308l121 551h156l-162 -754q-12 -52 -17.5 -84t-5.5 -51q0 -32 18.5 -48.5t53.5 -16.5q9 0 17.5 0.5t17.5 1.5l-27 -125q-21 -5 -44 -7.5t-48 -2.5 q-70 0 -104.5 35t-40.5 112q-41 -70 -117 -108.5t-172 -38.5q-87 0 -152.5 34t-109.5 103l-113 -545h-156z" />
<glyph unicode="&#xb6;" horiz-adv-x="1024" d="M76 1130q0 157 107.5 253t285.5 96h479v-78h-125v-1401h-94v1401h-182v-1401h-96v782q-173 8 -274 102.5t-101 245.5z" />
<glyph unicode="&#xb7;" horiz-adv-x="973" d="M367 752q0 50 34 84t84 34q51 0 86 -34t35 -84q0 -51 -35.5 -86t-85.5 -35q-48 0 -83 35.5t-35 85.5z" />
<glyph unicode="&#xb8;" horiz-adv-x="1024" d="M264 -344h359q35 0 48 11t13 40t-13 40t-48 11h-166q-30 0 -40.5 14.5t-10.5 61.5v166h106v-133h203q55 0 81.5 -29.5t26.5 -91.5v-70q0 -70 -24.5 -99.5t-81.5 -29.5h-453v109z" />
<glyph unicode="&#xb9;" horiz-adv-x="1282" d="M272 1178l408 307h139v-893h-114v778l-365 -264z" />
<glyph unicode="&#xba;" horiz-adv-x="1227" d="M100 1067v117q0 168 88 241.5t289 73.5h273q202 0 290 -73.5t88 -241.5v-117q0 -176 -87 -251t-291 -75h-273q-204 0 -290.5 74.5t-86.5 251.5zM225 1079q0 -135 57 -182t228 -47h207q171 0 227.5 47t56.5 182v88q0 132 -56.5 178t-227.5 46h-207q-171 0 -228 -46 t-57 -178v-88z" />
<glyph unicode="&#xbb;" horiz-adv-x="1028" d="M92 217l221 324l-221 317h189l221 -317l-221 -324h-189zM524 217l219 324l-219 317h187l221 -317l-221 -324h-187z" />
<glyph unicode="&#xbc;" horiz-adv-x="2791" d="M260 1198l387 287h133v-834h-108v727l-348 -245zM883 -18l880 1525h144l-879 -1525h-145zM1632 174v127l770 533h154v-570h156v-90h-156v-174h-105v174h-819zM1747 264h704v490z" />
<glyph unicode="&#xbd;" horiz-adv-x="2791" d="M260 1198l387 287h133v-834h-108v727l-348 -245zM883 -18l880 1525h144l-879 -1525h-145zM1669 0v168q0 117 70.5 169.5t255.5 63.5l407 25q99 6 137.5 38t38.5 107q0 66 -8.5 96.5t-29.5 45.5q-35 26 -99.5 37.5t-183.5 11.5h-189q-165 0 -222.5 -37.5t-57.5 -140.5v-54 h-113v99q0 117 79.5 166t277.5 49h278q231 0 310 -56t79 -213q0 -126 -65 -180t-235 -65l-400 -27q-104 -6 -138 -17.5t-53 -35.5q-11 -16 -16.5 -44.5t-5.5 -74.5q0 -6 1 -18.5t1 -20.5h922v-92h-1041z" />
<glyph unicode="&#xbe;" horiz-adv-x="2791" d="M84 864q0 8 1 25t1 26h119v-20q0 -43 7 -72t21 -45q24 -23 63.5 -33t127.5 -10h29h354q88 0 124.5 6t55.5 21t27 41.5t8 93.5q0 78 -30.5 105.5t-114.5 27.5h-385v94h315q127 0 164 25.5t37 112.5q0 57 -12 82t-42 38q-18 9 -81 15t-142 6h-311q-120 0 -164.5 -31 t-44.5 -112q0 -5 1 -14t1 -13h-117v57q0 110 77 154.5t280 44.5h313q214 0 287 -44.5t73 -166.5q0 -114 -35 -152.5t-128 -40.5v-8h8q90 0 129 -41.5t39 -138.5q0 -91 -10.5 -130t-34.5 -62q-33 -33 -104.5 -48.5t-188.5 -15.5h-387q-180 0 -255 51t-75 172zM883 -18 l880 1525h144l-879 -1525h-145zM1632 174v127l770 533h154v-570h156v-90h-156v-174h-105v174h-819zM1747 264h704v490z" />
<glyph unicode="&#xbf;" horiz-adv-x="1595" d="M104 408q0 195 76 289t254 122l203 31q101 15 134.5 47t33.5 102v21h164v-88q0 -107 -68.5 -164t-226.5 -82l-228 -35q-95 -15 -133.5 -73.5t-38.5 -192.5q0 -149 68 -198.5t360 -49.5h295q186 0 254 51t68 193v92h172v-203q0 -138 -107 -213t-305 -75h-461 q-290 0 -402 93t-112 333zM776 1219v270h232v-270h-232z" />
<glyph unicode="&#xc0;" horiz-adv-x="1972" d="M-2 0l864 1489h246l866 -1489h-196l-195 328h-1184l-190 -328h-211zM489 485h1004l-506 856zM672 1872h247l234 -272h-137z" />
<glyph unicode="&#xc1;" horiz-adv-x="1972" d="M-2 0l864 1489h246l866 -1489h-196l-195 328h-1184l-190 -328h-211zM489 485h1004l-506 856zM821 1600l234 272h247l-344 -272h-137z" />
<glyph unicode="&#xc2;" horiz-adv-x="1972" d="M-2 0l864 1489h246l866 -1489h-196l-195 328h-1184l-190 -328h-211zM489 485h1004l-506 856zM635 1600l237 272h230l237 -272h-135l-217 165l-217 -165h-135z" />
<glyph unicode="&#xc3;" horiz-adv-x="1972" d="M-2 0l864 1489h246l866 -1489h-196l-195 328h-1184l-190 -328h-211zM489 485h1004l-506 856zM647 1620q29 97 89.5 146t152.5 49q14 0 28 -1.5t30 -5.5l144 -32q13 -2 22.5 -3t16.5 -1q38 0 62.5 18t32.5 51h102q-18 -96 -77.5 -147t-151.5 -51q-20 0 -40 2.5t-43 7.5 l-119 29q-7 2 -17 3t-31 1q-32 0 -58 -17.5t-41 -48.5h-102z" />
<glyph unicode="&#xc4;" horiz-adv-x="1972" d="M-2 0l864 1489h246l866 -1489h-196l-195 328h-1184l-190 -328h-211zM489 485h1004l-506 856zM676 1624v195h207v-195h-207zM1091 1624v195h207v-195h-207z" />
<glyph unicode="&#xc5;" horiz-adv-x="1972" d="M-2 0l864 1489h246l866 -1489h-196l-195 328h-1184l-190 -328h-211zM489 485h1004l-506 856zM707 1757q0 99 72 152t206 53t205.5 -53t71.5 -152q0 -97 -72 -150t-205 -53t-205.5 53t-72.5 150zM852 1753q0 -61 32.5 -90t100.5 -29q69 0 101 29t32 90t-31.5 89t-101.5 28 q-68 0 -100.5 -28.5t-32.5 -88.5z" />
<glyph unicode="&#xc6;" horiz-adv-x="2544" d="M-39 0l926 1489h1562v-162h-1112v-467h996v-162h-996v-536h1112v-162h-1292v352h-766l-219 -352h-211zM492 512h665v815h-162z" />
<glyph unicode="&#xc7;" horiz-adv-x="2034" d="M152 528v406q0 186 33.5 296t107.5 173q67 57 175 80.5t329 23.5h469q364 0 492 -90.5t128 -329.5q0 -31 -0.5 -48t-1.5 -31h-170v22q0 174 -76.5 243.5t-269.5 69.5h-645q-132 0 -205.5 -25t-114.5 -83q-29 -41 -41 -98t-12 -191v-28v-367q0 -134 12 -191t41 -98 q41 -58 114.5 -83t205.5 -25h643q211 0 288 68t77 247v41h170q0 -14 1 -38.5t1 -35.5q0 -140 -28 -223.5t-91 -136.5q-60 -52 -168 -73t-350 -21h-467q-229 0 -334 23.5t-172 80.5q-74 63 -107.5 167t-33.5 275zM780 -344h359q35 0 48 11t13 40t-13 40t-48 11h-166 q-30 0 -40.5 14.5t-10.5 61.5v166h106v-133h203q55 0 81.5 -29.5t26.5 -91.5v-70q0 -70 -24.5 -99.5t-81.5 -29.5h-453v109z" />
<glyph unicode="&#xc8;" horiz-adv-x="1741" d="M184 0v1489h1467v-166h-1286v-467h1232v-166h-1232v-524h1286v-166h-1467zM609 1872h247l234 -272h-137z" />
<glyph unicode="&#xc9;" horiz-adv-x="1741" d="M184 0v1489h1467v-166h-1286v-467h1232v-166h-1232v-524h1286v-166h-1467zM758 1600l234 272h247l-344 -272h-137z" />
<glyph unicode="&#xca;" horiz-adv-x="1741" d="M184 0v1489h1467v-166h-1286v-467h1232v-166h-1232v-524h1286v-166h-1467zM572 1600l237 272h230l237 -272h-135l-217 165l-217 -165h-135z" />
<glyph unicode="&#xcb;" horiz-adv-x="1741" d="M184 0v1489h1467v-166h-1286v-467h1232v-166h-1232v-524h1286v-166h-1467zM613 1624v195h207v-195h-207zM1028 1624v195h207v-195h-207z" />
<glyph unicode="&#xcc;" horiz-adv-x="567" d="M-30 1872h247l234 -272h-137zM186 0v1489h185v-1489h-185z" />
<glyph unicode="&#xcd;" horiz-adv-x="567" d="M119 1600l234 272h247l-344 -272h-137zM186 0v1489h185v-1489h-185z" />
<glyph unicode="&#xce;" horiz-adv-x="567" d="M-67 1600l237 272h230l237 -272h-135l-217 165l-217 -165h-135zM186 0v1489h185v-1489h-185z" />
<glyph unicode="&#xcf;" horiz-adv-x="567" d="M-26 1624v195h207v-195h-207zM186 0v1489h185v-1489h-185zM389 1624v195h207v-195h-207z" />
<glyph unicode="&#xd0;" horiz-adv-x="2136" d="M0 692v148h193v649h1118q219 0 331.5 -22.5t184.5 -73.5q91 -65 131.5 -169.5t40.5 -277.5v-403q0 -173 -40.5 -277.5t-131.5 -169.5q-72 -51 -184.5 -73.5t-331.5 -22.5h-1118v692h-193zM377 166h1055q208 0 291 80t83 280v435q0 211 -78.5 286.5t-295.5 75.5h-1055 v-483h672v-148h-672v-526z" />
<glyph unicode="&#xd1;" horiz-adv-x="2185" d="M182 0v1489h291l1346 -1319v1319h184v-1489h-270l-1366 1339v-1339h-185zM760 1620q29 97 89.5 146t152.5 49q14 0 28 -1.5t30 -5.5l144 -32q13 -2 22.5 -3t16.5 -1q38 0 62.5 18t32.5 51h102q-18 -96 -77.5 -147t-151.5 -51q-20 0 -40 2.5t-43 7.5l-119 29q-7 2 -17 3 t-31 1q-32 0 -58 -17.5t-41 -48.5h-102z" />
<glyph unicode="&#xd2;" horiz-adv-x="2175" d="M152 528v406q0 186 35 296t114 173q71 56 187.5 80t351.5 24h497q235 0 351.5 -24t187.5 -80q77 -61 113 -169.5t36 -281.5v-415q0 -174 -36 -282t-113 -169q-71 -57 -184.5 -80.5t-354.5 -23.5h-495q-239 0 -353 23.5t-186 80.5q-80 64 -115.5 168t-35.5 274zM350 553 q0 -134 13 -191.5t45 -99.5q44 -58 122 -83t222 -25h673q144 0 222 25t122 83q30 40 43 95.5t13 172.5v50v387q0 118 -13 173t-43 95q-44 58 -122 83t-222 25h-673q-144 0 -222 -25t-122 -83q-32 -42 -45 -99.5t-13 -191.5v-26v-365zM772 1872h247l234 -272h-137z" />
<glyph unicode="&#xd3;" horiz-adv-x="2175" d="M152 528v406q0 186 35 296t114 173q71 56 187.5 80t351.5 24h497q235 0 351.5 -24t187.5 -80q77 -61 113 -169.5t36 -281.5v-415q0 -174 -36 -282t-113 -169q-71 -57 -184.5 -80.5t-354.5 -23.5h-495q-239 0 -353 23.5t-186 80.5q-80 64 -115.5 168t-35.5 274zM350 553 q0 -134 13 -191.5t45 -99.5q44 -58 122 -83t222 -25h673q144 0 222 25t122 83q30 40 43 95.5t13 172.5v50v387q0 118 -13 173t-43 95q-44 58 -122 83t-222 25h-673q-144 0 -222 -25t-122 -83q-32 -42 -45 -99.5t-13 -191.5v-26v-365zM921 1600l234 272h247l-344 -272h-137z " />
<glyph unicode="&#xd4;" horiz-adv-x="2175" d="M152 528v406q0 186 35 296t114 173q71 56 187.5 80t351.5 24h497q235 0 351.5 -24t187.5 -80q77 -61 113 -169.5t36 -281.5v-415q0 -174 -36 -282t-113 -169q-71 -57 -184.5 -80.5t-354.5 -23.5h-495q-239 0 -353 23.5t-186 80.5q-80 64 -115.5 168t-35.5 274zM350 553 q0 -134 13 -191.5t45 -99.5q44 -58 122 -83t222 -25h673q144 0 222 25t122 83q30 40 43 95.5t13 172.5v50v387q0 118 -13 173t-43 95q-44 58 -122 83t-222 25h-673q-144 0 -222 -25t-122 -83q-32 -42 -45 -99.5t-13 -191.5v-26v-365zM735 1600l237 272h230l237 -272h-135 l-217 165l-217 -165h-135z" />
<glyph unicode="&#xd5;" horiz-adv-x="2175" d="M152 528v406q0 186 35 296t114 173q71 56 187.5 80t351.5 24h497q235 0 351.5 -24t187.5 -80q77 -61 113 -169.5t36 -281.5v-415q0 -174 -36 -282t-113 -169q-71 -57 -184.5 -80.5t-354.5 -23.5h-495q-239 0 -353 23.5t-186 80.5q-80 64 -115.5 168t-35.5 274zM350 553 q0 -134 13 -191.5t45 -99.5q44 -58 122 -83t222 -25h673q144 0 222 25t122 83q30 40 43 95.5t13 172.5v50v387q0 118 -13 173t-43 95q-44 58 -122 83t-222 25h-673q-144 0 -222 -25t-122 -83q-32 -42 -45 -99.5t-13 -191.5v-26v-365zM747 1620q29 97 89.5 146t152.5 49 q14 0 28 -1.5t30 -5.5l144 -32q13 -2 22.5 -3t16.5 -1q38 0 62.5 18t32.5 51h102q-18 -96 -77.5 -147t-151.5 -51q-20 0 -40 2.5t-43 7.5l-119 29q-7 2 -17 3t-31 1q-32 0 -58 -17.5t-41 -48.5h-102z" />
<glyph unicode="&#xd6;" horiz-adv-x="2175" d="M152 528v406q0 186 35 296t114 173q71 56 187.5 80t351.5 24h497q235 0 351.5 -24t187.5 -80q77 -61 113 -169.5t36 -281.5v-415q0 -174 -36 -282t-113 -169q-71 -57 -184.5 -80.5t-354.5 -23.5h-495q-239 0 -353 23.5t-186 80.5q-80 64 -115.5 168t-35.5 274zM350 553 q0 -134 13 -191.5t45 -99.5q44 -58 122 -83t222 -25h673q144 0 222 25t122 83q30 40 43 95.5t13 172.5v50v387q0 118 -13 173t-43 95q-44 58 -122 83t-222 25h-673q-144 0 -222 -25t-122 -83q-32 -42 -45 -99.5t-13 -191.5v-26v-365zM776 1624v195h207v-195h-207zM1191 1624 v195h207v-195h-207z" />
<glyph unicode="&#xd7;" horiz-adv-x="1706" d="M301 135l475 475l-475 477l80 82l477 -477l475 477l82 -82l-475 -477l475 -475l-82 -82l-475 475l-477 -475z" />
<glyph unicode="&#xd8;" horiz-adv-x="2175" d="M70 51l157 119q-37 47 -56 138.5t-19 223.5v404q0 185 35 293.5t114 173.5q71 58 186.5 82t350.5 24h499q207 0 319.5 -17t164.5 -54l164 131l90 -105l-144 -118q47 -64 69.5 -157t22.5 -226v-422q0 -173 -35.5 -280.5t-113.5 -170.5q-71 -57 -184 -80.5t-353 -23.5h-497 q-230 0 -342 19t-166 65l-168 -138zM350 543q0 -119 8 -169.5t27 -80.5l1277 1019q-41 18 -94 26t-143 8h-675q-145 0 -222.5 -26t-121.5 -85q-30 -41 -43 -96t-13 -170v-49v-377zM496 195q44 -20 101.5 -28.5t152.5 -8.5h675q145 0 222 25t120 83q32 42 45 98.5t13 190.5 v27v405q0 96 -11 146.5t-36 89.5z" />
<glyph unicode="&#xd9;" horiz-adv-x="2066" d="M172 524v965h190v-965q0 -119 12 -172t40 -92q39 -57 111.5 -82.5t201.5 -25.5h612q130 0 202 25.5t112 82.5q28 39 39.5 92t11.5 172v51v914h190v-954q0 -171 -33 -279t-104 -170q-64 -57 -169 -80.5t-326 -23.5h-455q-219 0 -324 23.5t-172 80.5q-73 62 -106 165 t-33 273zM719 1872h247l234 -272h-137z" />
<glyph unicode="&#xda;" horiz-adv-x="2066" d="M172 524v965h190v-965q0 -119 12 -172t40 -92q39 -57 111.5 -82.5t201.5 -25.5h612q130 0 202 25.5t112 82.5q28 39 39.5 92t11.5 172v51v914h190v-954q0 -171 -33 -279t-104 -170q-64 -57 -169 -80.5t-326 -23.5h-455q-219 0 -324 23.5t-172 80.5q-73 62 -106 165 t-33 273zM868 1600l234 272h247l-344 -272h-137z" />
<glyph unicode="&#xdb;" horiz-adv-x="2066" d="M172 524v965h190v-965q0 -119 12 -172t40 -92q39 -57 111.5 -82.5t201.5 -25.5h612q130 0 202 25.5t112 82.5q28 39 39.5 92t11.5 172v51v914h190v-954q0 -171 -33 -279t-104 -170q-64 -57 -169 -80.5t-326 -23.5h-455q-219 0 -324 23.5t-172 80.5q-73 62 -106 165 t-33 273zM682 1600l237 272h230l237 -272h-135l-217 165l-217 -165h-135z" />
<glyph unicode="&#xdc;" horiz-adv-x="2066" d="M172 524v965h190v-965q0 -119 12 -172t40 -92q39 -57 111.5 -82.5t201.5 -25.5h612q130 0 202 25.5t112 82.5q28 39 39.5 92t11.5 172v51v914h190v-954q0 -171 -33 -279t-104 -170q-64 -57 -169 -80.5t-326 -23.5h-455q-219 0 -324 23.5t-172 80.5q-73 62 -106 165 t-33 273zM723 1624v195h207v-195h-207zM1138 1624v195h207v-195h-207z" />
<glyph unicode="&#xdd;" horiz-adv-x="1886" d="M2 1489h262l680 -698l680 698h264l-846 -866v-623h-196v623zM778 1600l234 272h247l-344 -272h-137z" />
<glyph unicode="&#xde;" horiz-adv-x="1896" d="M182 0v1489h185v-295h850q356 0 469.5 -75t113.5 -277v-195q0 -202 -114 -278t-469 -76h-850v-293h-185zM367 461h903q200 0 266 48.5t66 203.5v69q0 155 -66 203.5t-266 48.5h-903v-573z" />
<glyph unicode="&#xdf;" horiz-adv-x="1602" d="M178 0v1085q0 205 130.5 304.5t400.5 99.5h262q232 0 342 -95t110 -294q0 -122 -49 -192.5t-153 -98.5q144 -16 205 -107.5t61 -295.5q0 -160 -22.5 -223.5t-80.5 -108.5q-58 -47 -160 -68.5t-263 -21.5q-94 0 -174 4t-132 12v147q63 -14 129 -21t140 -7 q120 0 198.5 14.5t124.5 44.5q37 24 51.5 75.5t14.5 192.5q0 173 -65 231t-259 58h-43h-280v142h303q186 0 236 46.5t50 176.5q0 142 -71.5 195t-288.5 53h-193q-207 0 -282.5 -65t-75.5 -236v-1047h-166z" />
<glyph unicode="&#xe0;" horiz-adv-x="1550" d="M102 328q0 179 108.5 252t375.5 73h295q132 0 219 -30t141 -95v144q0 134 -71.5 185.5t-268.5 51.5h-250q-193 0 -247 -29t-54 -114v-31h-176v29q0 160 106 231.5t345 71.5h303q244 0 358.5 -93.5t114.5 -293.5v-680h-160v139q-41 -83 -123 -118t-248 -35h-280 q-270 0 -379 76t-109 266zM285 336q0 -120 60 -157.5t288 -37.5h252q205 0 275.5 30.5t70.5 107.5v92q0 77 -72 108t-274 31h-252q-220 0 -284 -35.5t-64 -138.5zM461 1448h247l234 -272h-137z" />
<glyph unicode="&#xe1;" horiz-adv-x="1550" d="M102 328q0 179 108.5 252t375.5 73h295q132 0 219 -30t141 -95v144q0 134 -71.5 185.5t-268.5 51.5h-250q-193 0 -247 -29t-54 -114v-31h-176v29q0 160 106 231.5t345 71.5h303q244 0 358.5 -93.5t114.5 -293.5v-680h-160v139q-41 -83 -123 -118t-248 -35h-280 q-270 0 -379 76t-109 266zM285 336q0 -120 60 -157.5t288 -37.5h252q205 0 275.5 30.5t70.5 107.5v92q0 77 -72 108t-274 31h-252q-220 0 -284 -35.5t-64 -138.5zM610 1176l234 272h247l-344 -272h-137z" />
<glyph unicode="&#xe2;" horiz-adv-x="1550" d="M102 328q0 179 108.5 252t375.5 73h295q132 0 219 -30t141 -95v144q0 134 -71.5 185.5t-268.5 51.5h-250q-193 0 -247 -29t-54 -114v-31h-176v29q0 160 106 231.5t345 71.5h303q244 0 358.5 -93.5t114.5 -293.5v-680h-160v139q-41 -83 -123 -118t-248 -35h-280 q-270 0 -379 76t-109 266zM285 336q0 -120 60 -157.5t288 -37.5h252q205 0 275.5 30.5t70.5 107.5v92q0 77 -72 108t-274 31h-252q-220 0 -284 -35.5t-64 -138.5zM424 1176l237 272h230l237 -272h-135l-217 165l-217 -165h-135z" />
<glyph unicode="&#xe3;" horiz-adv-x="1550" d="M102 328q0 179 108.5 252t375.5 73h295q132 0 219 -30t141 -95v144q0 134 -71.5 185.5t-268.5 51.5h-250q-193 0 -247 -29t-54 -114v-31h-176v29q0 160 106 231.5t345 71.5h303q244 0 358.5 -93.5t114.5 -293.5v-680h-160v139q-41 -83 -123 -118t-248 -35h-280 q-270 0 -379 76t-109 266zM285 336q0 -120 60 -157.5t288 -37.5h252q205 0 275.5 30.5t70.5 107.5v92q0 77 -72 108t-274 31h-252q-220 0 -284 -35.5t-64 -138.5zM436 1196q29 97 89.5 146t152.5 49q14 0 28 -1.5t30 -5.5l144 -32q13 -2 22.5 -3t16.5 -1q38 0 62.5 18 t32.5 51h102q-18 -96 -77.5 -147t-151.5 -51q-20 0 -40 2.5t-43 7.5l-119 29q-7 2 -17 3t-31 1q-32 0 -58 -17.5t-41 -48.5h-102z" />
<glyph unicode="&#xe4;" horiz-adv-x="1550" d="M102 328q0 179 108.5 252t375.5 73h295q132 0 219 -30t141 -95v144q0 134 -71.5 185.5t-268.5 51.5h-250q-193 0 -247 -29t-54 -114v-31h-176v29q0 160 106 231.5t345 71.5h303q244 0 358.5 -93.5t114.5 -293.5v-680h-160v139q-41 -83 -123 -118t-248 -35h-280 q-270 0 -379 76t-109 266zM285 336q0 -120 60 -157.5t288 -37.5h252q205 0 275.5 30.5t70.5 107.5v92q0 77 -72 108t-274 31h-252q-220 0 -284 -35.5t-64 -138.5zM465 1200v195h207v-195h-207zM880 1200v195h207v-195h-207z" />
<glyph unicode="&#xe5;" horiz-adv-x="1550" d="M102 328q0 179 108.5 252t375.5 73h295q132 0 219 -30t141 -95v144q0 134 -71.5 185.5t-268.5 51.5h-250q-193 0 -247 -29t-54 -114v-31h-176v29q0 160 106 231.5t345 71.5h303q244 0 358.5 -93.5t114.5 -293.5v-680h-160v139q-41 -83 -123 -118t-248 -35h-280 q-270 0 -379 76t-109 266zM285 336q0 -120 60 -157.5t288 -37.5h252q205 0 275.5 30.5t70.5 107.5v92q0 77 -72 108t-274 31h-252q-220 0 -284 -35.5t-64 -138.5zM500 1341q0 99 71 151t205 52q135 0 207 -52t72 -151q0 -97 -73 -150.5t-206 -53.5q-132 0 -204 53.5 t-72 150.5zM643 1335q0 -60 32 -88t101 -28q70 0 102.5 28t32.5 88q0 61 -32.5 89t-102.5 28q-68 0 -100.5 -28.5t-32.5 -88.5z" />
<glyph unicode="&#xe6;" horiz-adv-x="2669" d="M104 332q0 178 107.5 249.5t374.5 71.5h295q132 0 219 -30t141 -95v144q0 134 -71.5 185.5t-268.5 51.5h-250q-195 0 -248 -28.5t-53 -114.5v-31h-176v29q0 160 106 231.5t345 71.5h303q175 0 264 -35.5t131 -118.5q56 81 155 116.5t283 37.5h262q298 0 415.5 -110 t117.5 -386q0 -33 -0.5 -49.5t-1.5 -31.5l-1153 -1v-59q2 -164 72.5 -226.5t250.5 -62.5h39h277q183 0 262.5 40.5t79.5 131.5v6h172v-26q0 -151 -121.5 -229t-355.5 -78h-316q-229 0 -329 40.5t-121 137.5q-61 -99 -146.5 -138.5t-294.5 -39.5h-280q-270 0 -378 76.5 t-108 269.5zM285 336q0 -120 60 -157.5t288 -37.5h252q205 0 275.5 30.5t70.5 107.5v92q0 77 -72 108t-274 31h-252q-220 0 -284 -35.5t-64 -138.5zM1403 639h977v25q0 140 -72.5 193.5t-288.5 53.5h-258q-198 0 -278 -61.5t-80 -210.5z" />
<glyph unicode="&#xe7;" horiz-adv-x="1505" d="M133 393v266q0 208 123 308t379 100h250q269 0 384 -82t115 -270v-27h-155q-2 132 -64 178.5t-276 46.5h-246q-185 0 -263.5 -55.5t-78.5 -181.5v-244q0 -166 72 -228.5t274 -62.5h250q198 0 271 53.5t73 190.5v12h158v-28q0 -201 -110.5 -292t-352.5 -91h-301 q-255 0 -378.5 100t-123.5 307zM514 -344h359q35 0 48 11t13 40t-13 40t-48 11h-166q-30 0 -40.5 14.5t-10.5 61.5v166h106v-133h203q55 0 81.5 -29.5t26.5 -91.5v-70q0 -70 -24.5 -99.5t-81.5 -29.5h-453v109z" />
<glyph unicode="&#xe8;" horiz-adv-x="1569" d="M133 440v168q0 248 121.5 353.5t407.5 105.5h262q297 0 413.5 -110t116.5 -386q0 -33 -0.5 -50t-1.5 -31l-1151 -1v-57q0 -167 81 -233t282 -66h274q175 0 258.5 43.5t83.5 134.5v11h174v-27q0 -152 -121.5 -230.5t-355.5 -78.5h-315q-284 0 -406.5 105t-122.5 349z M301 641h977v25q0 141 -72 194t-286 53h-261q-199 0 -278.5 -61.5t-79.5 -210.5zM471 1448h247l234 -272h-137z" />
<glyph unicode="&#xe9;" horiz-adv-x="1569" d="M133 440v168q0 248 121.5 353.5t407.5 105.5h262q297 0 413.5 -110t116.5 -386q0 -33 -0.5 -50t-1.5 -31l-1151 -1v-57q0 -167 81 -233t282 -66h274q175 0 258.5 43.5t83.5 134.5v11h174v-27q0 -152 -121.5 -230.5t-355.5 -78.5h-315q-284 0 -406.5 105t-122.5 349z M301 641h977v25q0 141 -72 194t-286 53h-261q-199 0 -278.5 -61.5t-79.5 -210.5zM620 1176l234 272h247l-344 -272h-137z" />
<glyph unicode="&#xea;" horiz-adv-x="1569" d="M133 440v168q0 248 121.5 353.5t407.5 105.5h262q297 0 413.5 -110t116.5 -386q0 -33 -0.5 -50t-1.5 -31l-1151 -1v-57q0 -167 81 -233t282 -66h274q175 0 258.5 43.5t83.5 134.5v11h174v-27q0 -152 -121.5 -230.5t-355.5 -78.5h-315q-284 0 -406.5 105t-122.5 349z M301 641h977v25q0 141 -72 194t-286 53h-261q-199 0 -278.5 -61.5t-79.5 -210.5zM434 1176l237 272h230l237 -272h-135l-217 165l-217 -165h-135z" />
<glyph unicode="&#xeb;" horiz-adv-x="1569" d="M133 440v168q0 248 121.5 353.5t407.5 105.5h262q297 0 413.5 -110t116.5 -386q0 -33 -0.5 -50t-1.5 -31l-1151 -1v-57q0 -167 81 -233t282 -66h274q175 0 258.5 43.5t83.5 134.5v11h174v-27q0 -152 -121.5 -230.5t-355.5 -78.5h-315q-284 0 -406.5 105t-122.5 349z M301 641h977v25q0 141 -72 194t-286 53h-261q-199 0 -278.5 -61.5t-79.5 -210.5zM475 1200v195h207v-195h-207zM890 1200v195h207v-195h-207z" />
<glyph unicode="&#xec;" horiz-adv-x="512" d="M-59 1448h247l234 -272h-137zM172 0v1053h168v-1053h-168z" />
<glyph unicode="&#xed;" horiz-adv-x="512" d="M90 1176l234 272h247l-344 -272h-137zM172 0v1053h168v-1053h-168z" />
<glyph unicode="&#xee;" horiz-adv-x="512" d="M-96 1176l237 272h230l237 -272h-135l-217 165l-217 -165h-135zM172 0v1053h168v-1053h-168z" />
<glyph unicode="&#xef;" horiz-adv-x="512" d="M-55 1200v195h207v-195h-207zM172 0v1053h168v-1053h-168zM360 1200v195h207v-195h-207z" />
<glyph unicode="&#xf0;" horiz-adv-x="1636" d="M133 451v165q0 242 117.5 346.5t386.5 104.5h188q199 0 304.5 -31.5t185.5 -105.5q-21 63 -78.5 140.5t-149.5 164.5l-49 49l-481 -110l-25 110l404 92l-121 113h191l81 -78l314 72l26 -109l-241 -57l74 -66q130 -118 186.5 -258t56.5 -350v-192q0 -252 -116 -358.5 t-388 -106.5h-362q-272 0 -388 106.5t-116 358.5zM301 469q0 -194 75 -261t304 -67h274q230 0 305.5 67.5t75.5 260.5v125q0 187 -76.5 253t-304.5 66h-274q-228 0 -303.5 -65.5t-75.5 -253.5v-125z" />
<glyph unicode="&#xf1;" horiz-adv-x="1602" d="M164 0v1053h166v-195q59 111 182.5 160t351.5 49q326 0 454 -85t128 -296v-686h-166v641q0 94 -15.5 136t-54.5 69q-44 32 -144.5 48.5t-248.5 16.5q-265 0 -376 -65t-111 -217v-629h-166zM498 1196q29 97 89.5 146t152.5 49q14 0 28 -1.5t30 -5.5l144 -32q13 -2 22.5 -3 t16.5 -1q38 0 62.5 18t32.5 51h102q-18 -96 -77.5 -147t-151.5 -51q-20 0 -40 2.5t-43 7.5l-119 29q-7 2 -17 3t-31 1q-32 0 -58 -17.5t-41 -48.5h-102z" />
<glyph unicode="&#xf2;" horiz-adv-x="1636" d="M133 451v165q0 242 117.5 346.5t386.5 104.5h362q269 0 386.5 -104.5t117.5 -346.5v-165q0 -252 -116 -358.5t-388 -106.5h-362q-272 0 -388 106.5t-116 358.5zM301 469q0 -194 75 -261t304 -67h274q230 0 305.5 67t75.5 261v125q0 188 -76 253.5t-305 65.5h-274 q-228 0 -303.5 -65.5t-75.5 -253.5v-125zM504 1448h247l234 -272h-137z" />
<glyph unicode="&#xf3;" horiz-adv-x="1636" d="M133 451v165q0 242 117.5 346.5t386.5 104.5h362q269 0 386.5 -104.5t117.5 -346.5v-165q0 -252 -116 -358.5t-388 -106.5h-362q-272 0 -388 106.5t-116 358.5zM301 469q0 -194 75 -261t304 -67h274q230 0 305.5 67t75.5 261v125q0 188 -76 253.5t-305 65.5h-274 q-228 0 -303.5 -65.5t-75.5 -253.5v-125zM653 1176l234 272h247l-344 -272h-137z" />
<glyph unicode="&#xf4;" horiz-adv-x="1636" d="M133 451v165q0 242 117.5 346.5t386.5 104.5h362q269 0 386.5 -104.5t117.5 -346.5v-165q0 -252 -116 -358.5t-388 -106.5h-362q-272 0 -388 106.5t-116 358.5zM301 469q0 -194 75 -261t304 -67h274q230 0 305.5 67t75.5 261v125q0 188 -76 253.5t-305 65.5h-274 q-228 0 -303.5 -65.5t-75.5 -253.5v-125zM467 1176l237 272h230l237 -272h-135l-217 165l-217 -165h-135z" />
<glyph unicode="&#xf5;" horiz-adv-x="1636" d="M133 451v165q0 242 117.5 346.5t386.5 104.5h362q269 0 386.5 -104.5t117.5 -346.5v-165q0 -252 -116 -358.5t-388 -106.5h-362q-272 0 -388 106.5t-116 358.5zM301 469q0 -194 75 -261t304 -67h274q230 0 305.5 67t75.5 261v125q0 188 -76 253.5t-305 65.5h-274 q-228 0 -303.5 -65.5t-75.5 -253.5v-125zM479 1196q29 97 89.5 146t152.5 49q14 0 28 -1.5t30 -5.5l144 -32q13 -2 22.5 -3t16.5 -1q38 0 62.5 18t32.5 51h102q-18 -96 -77.5 -147t-151.5 -51q-20 0 -40 2.5t-43 7.5l-119 29q-7 2 -17 3t-31 1q-32 0 -58 -17.5t-41 -48.5 h-102z" />
<glyph unicode="&#xf6;" horiz-adv-x="1636" d="M133 451v165q0 242 117.5 346.5t386.5 104.5h362q269 0 386.5 -104.5t117.5 -346.5v-165q0 -252 -116 -358.5t-388 -106.5h-362q-272 0 -388 106.5t-116 358.5zM301 469q0 -194 75 -261t304 -67h274q230 0 305.5 67t75.5 261v125q0 188 -76 253.5t-305 65.5h-274 q-228 0 -303.5 -65.5t-75.5 -253.5v-125zM508 1200v195h207v-195h-207zM923 1200v195h207v-195h-207z" />
<glyph unicode="&#xf7;" horiz-adv-x="1706" d="M254 553v117h1198v-117h-1198zM739 250q0 48 34 81.5t81 33.5t81 -34t34 -81t-33.5 -81t-81.5 -34t-81.5 33.5t-33.5 81.5zM739 971q0 47 34 80.5t81 33.5q48 0 81.5 -33.5t33.5 -80.5q0 -48 -33.5 -81.5t-81.5 -33.5q-49 0 -82 33.5t-33 81.5z" />
<glyph unicode="&#xf8;" horiz-adv-x="1636" d="M49 35l150 110q-35 50 -50.5 107.5t-15.5 138.5v225q0 242 117.5 346.5t386.5 104.5h362q116 0 210.5 -22.5t125.5 -51.5l162 121l68 -90l-142 -106q41 -47 60.5 -108t19.5 -138v-293q0 -196 -126.5 -294.5t-377.5 -98.5h-364q-119 0 -205 19t-145 58l-164 -122zM301 430 q0 -62 10 -107.5t29 -70.5l852 633q-38 13 -96 19.5t-142 6.5h-274q-228 0 -303.5 -65.5t-75.5 -253.5v-162zM430 172q37 -16 94.5 -23.5t155.5 -7.5h274q231 0 306 66.5t75 259.5v154q0 70 -12.5 116t-38.5 74z" />
<glyph unicode="&#xf9;" horiz-adv-x="1602" d="M156 367v686h166v-635q0 -96 15.5 -139.5t53.5 -71.5q45 -33 145.5 -49.5t260.5 -16.5q246 0 358.5 61.5t112.5 194.5v656h170v-1053h-160v199q-63 -116 -176 -164.5t-334 -48.5q-335 0 -473.5 87t-138.5 294zM486 1448h247l234 -272h-137z" />
<glyph unicode="&#xfa;" horiz-adv-x="1602" d="M156 367v686h166v-635q0 -96 15.5 -139.5t53.5 -71.5q45 -33 145.5 -49.5t260.5 -16.5q246 0 358.5 61.5t112.5 194.5v656h170v-1053h-160v199q-63 -116 -176 -164.5t-334 -48.5q-335 0 -473.5 87t-138.5 294zM635 1176l234 272h247l-344 -272h-137z" />
<glyph unicode="&#xfb;" horiz-adv-x="1602" d="M156 367v686h166v-635q0 -96 15.5 -139.5t53.5 -71.5q45 -33 145.5 -49.5t260.5 -16.5q246 0 358.5 61.5t112.5 194.5v656h170v-1053h-160v199q-63 -116 -176 -164.5t-334 -48.5q-335 0 -473.5 87t-138.5 294zM449 1176l237 272h230l237 -272h-135l-217 165l-217 -165 h-135z" />
<glyph unicode="&#xfc;" horiz-adv-x="1602" d="M156 367v686h166v-635q0 -96 15.5 -139.5t53.5 -71.5q45 -33 145.5 -49.5t260.5 -16.5q246 0 358.5 61.5t112.5 194.5v656h170v-1053h-160v199q-63 -116 -176 -164.5t-334 -48.5q-335 0 -473.5 87t-138.5 294zM490 1200v195h207v-195h-207zM905 1200v195h207v-195h-207z " />
<glyph unicode="&#xfd;" horiz-adv-x="1337" d="M2 1053h184l502 -912l457 912h186l-520 -1053q-119 -238 -221 -305.5t-281 -67.5q-23 0 -61 1t-53 1v150q16 -1 31.5 -1.5t29.5 -0.5q166 0 242 48.5t123 174.5h-50zM504 1176l234 272h247l-344 -272h-137z" />
<glyph unicode="&#xfe;" horiz-adv-x="1602" d="M164 -356v1845h162v-576q50 83 130.5 117.5t239.5 34.5h283q272 0 388 -106.5t116 -358.5v-166q0 -241 -117.5 -345.5t-386.5 -104.5h-324q-117 0 -196 35t-133 112v-487h-162zM324 457q0 -188 76 -254t302 -66h234q227 0 303 66t76 254v125q0 194 -75.5 260.5 t-303.5 66.5h-234q-227 0 -302.5 -66.5t-75.5 -260.5v-125z" />
<glyph unicode="&#xff;" horiz-adv-x="1337" d="M2 1053h184l502 -912l457 912h186l-520 -1053q-119 -238 -221 -305.5t-281 -67.5q-23 0 -61 1t-53 1v150q16 -1 31.5 -1.5t29.5 -0.5q166 0 242 48.5t123 174.5h-50zM359 1200v195h207v-195h-207zM774 1200v195h207v-195h-207z" />
<glyph unicode="&#x152;" horiz-adv-x="2968" d="M150 524v406q0 183 26 294t84 173q53 57 136 80.5t255 23.5h566q128 0 195.5 -35.5t119.5 -122.5v146h1296v-166h-1112v-459h1043v-162h-1043v-536h1112v-166h-1296v166q-64 -103 -144.5 -143.5t-279.5 -40.5h-455q-175 0 -257.5 23.5t-135.5 80.5q-58 61 -84 165 t-26 273zM348 575q0 -182 19 -250.5t65 -111.5q37 -33 94.5 -47t188.5 -14h73h373q133 0 190.5 14t94.5 47q46 43 65 109.5t19 252.5v338q0 187 -19 253.5t-65 109.5q-39 34 -100.5 48.5t-204.5 14.5h-54h-352q-142 0 -202.5 -14t-100.5 -49q-46 -43 -65 -111.5t-19 -251.5 v-338z" />
<glyph unicode="&#x153;" horiz-adv-x="2773" d="M133 451v165q0 241 117 345t387 104h362q160 0 262.5 -35t159.5 -108q63 74 168.5 108.5t274.5 34.5h264q299 0 414.5 -109t115.5 -385q0 -33 -0.5 -50t-1.5 -31l-1151 -1v-59q0 -161 75 -226t259 -65h29h274q182 0 262 41t80 133v6h174v-24q0 -152 -121.5 -230.5 t-357.5 -78.5h-315q-173 0 -274.5 33.5t-168.5 109.5q-62 -74 -163.5 -108.5t-258.5 -34.5h-362q-272 0 -388 106.5t-116 358.5zM301 467q0 -194 75 -261t304 -67h274q230 0 305.5 67t75.5 261v125q0 188 -76 253.5t-305 65.5h-274q-228 0 -303.5 -65.5t-75.5 -253.5v-125z M1505 641h977v21q0 143 -71.5 196t-286.5 53h-260q-200 0 -279.5 -61t-79.5 -209z" />
<glyph unicode="&#x178;" horiz-adv-x="1886" d="M2 1489h262l680 -698l680 698h264l-846 -866v-623h-196v623zM633 1624v195h207v-195h-207zM1048 1624v195h207v-195h-207z" />
<glyph unicode="&#x2c6;" horiz-adv-x="1024" d="M160 1176l237 272h230l237 -272h-135l-217 165l-217 -165h-135z" />
<glyph unicode="&#x2dc;" horiz-adv-x="1024" d="M172 1196q29 97 89.5 146t152.5 49q14 0 28 -1.5t30 -5.5l144 -32q13 -2 22.5 -3t16.5 -1q38 0 62.5 18t32.5 51h102q-18 -96 -77.5 -147t-151.5 -51q-20 0 -40 2.5t-43 7.5l-119 29q-7 2 -17 3t-31 1q-32 0 -58 -17.5t-41 -48.5h-102z" />
<glyph unicode="&#x2000;" horiz-adv-x="981" />
<glyph unicode="&#x2001;" horiz-adv-x="1962" />
<glyph unicode="&#x2002;" horiz-adv-x="981" />
<glyph unicode="&#x2003;" horiz-adv-x="1962" />
<glyph unicode="&#x2004;" horiz-adv-x="654" />
<glyph unicode="&#x2005;" horiz-adv-x="490" />
<glyph unicode="&#x2006;" horiz-adv-x="327" />
<glyph unicode="&#x2007;" horiz-adv-x="327" />
<glyph unicode="&#x2008;" horiz-adv-x="245" />
<glyph unicode="&#x2009;" horiz-adv-x="392" />
<glyph unicode="&#x200a;" horiz-adv-x="109" />
<glyph unicode="&#x2010;" horiz-adv-x="901" d="M166 461v149h569v-149h-569z" />
<glyph unicode="&#x2011;" horiz-adv-x="901" d="M166 461v149h569v-149h-569z" />
<glyph unicode="&#x2012;" horiz-adv-x="901" d="M166 461v149h569v-149h-569z" />
<glyph unicode="&#x2013;" horiz-adv-x="1024" d="M0 483v107h1024v-107h-1024z" />
<glyph unicode="&#x2014;" horiz-adv-x="2048" d="M0 483v107h2048v-107h-2048z" />
<glyph unicode="&#x2018;" horiz-adv-x="758" d="M262 1008v307q0 96 45.5 144t134.5 48h68v-125h-41q-30 0 -43.5 -16.5t-13.5 -52.5v-35h84v-270h-234z" />
<glyph unicode="&#x2019;" horiz-adv-x="758" d="M248 987v127h41q30 0 43.5 16t13.5 52v37h-84v270h234v-307q0 -97 -45 -146t-134 -49h-69z" />
<glyph unicode="&#x201a;" horiz-adv-x="758" d="M248 -104h41q30 0 43.5 15.5t13.5 51.5v37h-84v270h234v-307q0 -96 -44.5 -144t-134.5 -48h-69v125z" />
<glyph unicode="&#x201c;" horiz-adv-x="1190" d="M262 1008v307q0 96 45.5 144t134.5 48h68v-125h-41q-30 0 -43.5 -16.5t-13.5 -52.5v-35h84v-270h-234zM694 1008v307q0 96 44.5 144t133.5 48h68v-125h-39q-30 0 -43.5 -16.5t-13.5 -52.5v-35h82v-270h-232z" />
<glyph unicode="&#x201d;" horiz-adv-x="1190" d="M248 987v127h41q30 0 43.5 16t13.5 52v37h-84v270h234v-307q0 -97 -45 -146t-134 -49h-69zM680 987v127h41q30 0 43.5 16t13.5 52v37h-82v270h232v-307q0 -97 -45 -146t-133 -49h-70z" />
<glyph unicode="&#x201e;" horiz-adv-x="1190" d="M248 -104h41q30 0 43.5 15.5t13.5 51.5v37h-84v270h234v-307q0 -96 -44.5 -144t-134.5 -48h-69v125zM680 -104h41q30 0 43.5 15.5t13.5 51.5v37h-82v270h232v-307q0 -96 -44.5 -144t-133.5 -48h-70v125z" />
<glyph unicode="&#x2022;" horiz-adv-x="1208" d="M307 762q0 123 87 209t210 86q122 0 208.5 -86.5t86.5 -208.5t-87.5 -209.5t-209.5 -87.5q-123 0 -209 87t-86 210z" />
<glyph unicode="&#x2026;" horiz-adv-x="2048" d="M226 0v270h231v-270h-231zM908 0v270h231v-270h-231zM1592 0v270h231v-270h-231z" />
<glyph unicode="&#x202f;" horiz-adv-x="392" />
<glyph unicode="&#x2039;" horiz-adv-x="598" d="M94 541l221 317h189l-221 -317l221 -324h-189z" />
<glyph unicode="&#x203a;" horiz-adv-x="598" d="M94 217l219 324l-219 317h187l221 -317l-221 -324h-187z" />
<glyph unicode="&#x205f;" horiz-adv-x="490" />
<glyph unicode="&#x2122;" horiz-adv-x="1706" d="M254 1389v67h440v-67h-172v-467h-94v467h-174zM819 922v534h129l160 -405l149 405h132v-534h-82v458l-172 -458h-54l-180 458v-458h-82z" />
<glyph unicode="&#x25fc;" horiz-adv-x="1055" d="M0 0v1055h1055v-1055h-1055z" />
</font>
</defs>
</svg>
